<svg id="svg" version="1.1" width="407" height="491" xmlns="http://www.w3.org/2000/svg" xmlns:xlink="http://www.w3.org/1999/xlink" ><g id="svgg"><path id="path0" d="M193.459 68.998 C 179.523 82.950,176.436 98.460,181.463 129.268 C 184.426 147.425,184.179 150.863,179.547 155.905 C 169.428 166.921,156.477 158.169,156.185 140.116 L 156.104 135.135 153.864 140.049 C 144.472 160.645,145.964 189.843,157.290 207.105 C 176.889 236.977,228.959 241.566,255.128 215.728 C 269.769 201.272,274.263 182.542,268.687 159.214 L 266.925 151.843 266.216 158.537 C 264.178 177.778,250.300 184.931,240.493 171.796 C 237.230 167.425,237.319 161.814,240.875 147.869 C 245.313 130.470,245.431 120.183,241.298 111.152 L 238.418 104.860 236.849 111.295 C 230.847 135.912,204.242 133.620,196.403 107.811 C 193.836 99.362,194.284 84.427,197.466 72.319 C 200.008 62.651,199.893 62.556,193.459 68.998 M78.633 157.729 C 76.144 160.728,77.860 198.599,80.905 207.862 C 89.034 232.595,108.923 251.729,140.374 265.076 C 175.855 280.133,156.412 297.789,104.350 297.789 C 76.392 297.789,61.948 309.365,61.926 331.789 C 61.911 346.965,54.359 345.405,129.396 345.721 L 192.738 345.988 195.632 343.094 L 198.526 340.200 198.526 293.979 C 198.526 238.852,199.351 242.464,186.241 240.208 C 164.771 236.514,142.026 221.033,133.886 204.574 L 130.221 197.163 129.730 177.943 C 129.459 167.371,128.881 158.170,128.443 157.494 C 127.169 155.525,80.278 155.746,78.633 157.729 M288.264 157.494 C 287.827 158.170,287.248 167.371,286.978 177.943 L 286.486 197.163 282.821 204.574 C 274.682 221.033,251.936 236.514,230.467 240.208 C 217.357 242.464,218.182 238.852,218.182 293.979 L 218.182 340.200 221.055 343.073 L 223.927 345.946 286.770 345.946 C 362.016 345.946,354.796 347.440,354.782 331.870 C 354.760 309.293,340.399 297.809,312.151 297.781 C 286.995 297.755,264.561 292.522,260.407 285.710 C 255.339 277.397,259.143 272.317,275.602 265.416 C 311.353 250.428,333.672 226.530,338.006 198.594 C 339.497 188.983,339.410 158.968,337.887 157.445 C 336.164 155.722,289.381 155.768,288.264 157.494 M91.400 380.963 C 78.858 385.780,73.175 395.632,76.663 406.511 C 84.789 431.850,122.126 420.065,114.541 394.555 C 111.849 385.500,99.094 378.008,91.400 380.963 M147.414 381.214 C 136.956 384.601,132.521 390.505,132.495 401.075 C 132.433 426.339,169.545 427.410,171.671 402.206 C 172.797 388.854,159.459 377.311,147.414 381.214 M202.022 381.759 C 181.002 389.528,186.069 420.639,208.354 420.639 C 228.613 420.639,235.859 392.315,217.939 383.169 C 212.862 380.578,206.695 380.031,202.022 381.759 M258.189 381.799 C 236.782 389.952,241.969 420.147,264.776 420.147 C 290.369 420.147,291.597 383.613,266.097 380.835 C 263.707 380.574,260.320 380.987,258.189 381.799 M316.405 381.227 C 298.616 386.969,295.376 409.303,311.082 417.913 C 329.720 428.130,348.424 408.076,337.555 389.529 C 333.822 383.159,323.261 379.014,316.405 381.227 M114.346 438.332 C 101.607 444.805,100.725 464.500,112.804 472.777 C 120.977 478.377,134.918 475.744,140.320 467.580 C 151.724 450.348,132.748 428.981,114.346 438.332 M171.499 438.221 C 159.536 443.742,156.389 459.952,165.403 469.615 C 173.646 478.452,189.779 477.554,196.288 467.896 C 208.046 450.447,190.506 429.449,171.499 438.221 M226.998 438.575 C 212.569 445.864,213.352 467.935,228.260 474.164 C 241.838 479.837,256.564 470.260,256.489 455.806 C 256.414 441.054,240.498 431.755,226.998 438.575 M283.212 438.472 C 270.705 444.664,269.620 464.768,281.374 472.546 C 286.990 476.263,298.613 476.402,303.846 472.816 C 324.490 458.670,305.675 427.354,283.212 438.472 " stroke="none" fill="#000000" fill-rule="evenodd"></path></g></svg>