<svg xmlns="http://www.w3.org/2000/svg" width="1024" height="1024" viewBox="0 0 1024 1024">
  <g>
    <path d="M 821.78 669.10 L 816.06 672.00 L 677.78 671.95 L 539.50 671.89 L 534.60 669.46 C528.18,666.28 526.27,664.47 523.39,658.78 L 521.00 654.07 L 521.00 548.62 C521.00,445.13 521.04,443.08 523.02,438.47 C524.12,435.88 526.24,432.80 527.71,431.63 C530.85,429.13 539.33,426.07 543.24,426.03 C548.46,425.97 576.17,418.72 582.00,415.88 C582.83,415.48 585.30,414.49 587.50,413.68 C599.48,409.27 618.18,398.74 630.51,389.46 C648.73,375.74 667.20,351.70 671.96,335.50 C676.97,318.45 676.98,318.37 676.99,279.80 C677.00,241.64 677.16,240.02 681.37,235.25 L 683.35 233.00 L 791.76 233.00 L 794.92 236.23 C796.66,238.01 798.30,240.37 798.57,241.48 C799.26,244.30 798.33,320.06 797.51,328.00 C797.14,331.58 796.42,334.93 795.92,335.45 C795.41,335.97 795.00,337.57 795.00,339.00 C795.00,343.23 787.61,363.95 781.94,375.64 C766.27,407.90 741.29,435.55 707.94,457.55 C691.58,468.35 693.20,467.41 676.81,475.54 C669.49,479.17 662.31,482.79 660.85,483.57 C659.39,484.36 657.68,485.00 657.05,485.00 C656.42,485.00 654.04,485.90 651.76,487.00 C649.49,488.10 647.26,489.00 646.81,489.00 C646.36,489.00 643.85,490.02 641.25,491.27 C638.64,492.52 634.61,494.16 632.31,494.91 C626.81,496.71 621.63,501.07 618.35,506.66 C616.22,510.30 615.71,512.46 615.68,517.84 C615.66,525.20 617.62,529.81 623.29,535.75 C626.79,539.42 639.50,545.99 643.12,546.01 C644.43,546.02 647.53,546.78 650.00,547.69 C652.47,548.61 657.65,549.67 661.50,550.05 C665.35,550.43 675.25,551.69 683.50,552.84 C692.81,554.15 709.11,555.35 726.50,556.00 C757.46,557.16 764.94,558.01 776.00,561.64 C798.94,569.16 811.79,577.65 823.43,592.98 C828.05,599.07 830.17,603.20 833.04,611.78 C835.73,619.84 835.94,654.56 833.32,658.79 C830.21,663.79 827.54,666.18 821.78,669.10 ZM 462.45 669.95 C461.85,670.55 408.89,671.02 322.32,671.20 C316.00,671.22 309.97,671.23 304.20,671.24 C187.92,671.50 180.57,671.51 175.53,668.11 C174.93,667.71 174.38,667.27 173.68,666.77 C172.11,665.65 169.51,662.93 167.91,660.72 L 165.00 656.70 L 165.00 636.88 C165.00,621.59 165.36,615.98 166.57,612.28 C174.48,588.13 191.65,572.28 220.45,562.54 C226.21,560.59 232.49,559.00 234.41,559.00 C236.33,559.00 238.94,558.58 240.20,558.06 C241.47,557.55 255.77,556.64 272.00,556.04 C288.23,555.45 306.49,554.30 312.59,553.49 C318.69,552.68 326.12,551.79 329.09,551.53 C340.16,550.53 353.51,547.34 363.83,543.23 C371.21,540.29 380.32,532.49 382.66,527.11 C384.81,522.17 384.76,513.34 382.55,509.09 C380.05,504.28 372.07,496.00 369.92,496.00 C368.93,496.00 367.84,495.55 367.50,495.00 C367.16,494.45 366.25,494.00 365.47,494.00 C364.69,494.00 361.45,492.83 358.28,491.40 C351.61,488.39 349.81,487.66 345.00,485.98 C341.48,484.76 336.79,482.68 334.00,481.10 C333.17,480.63 328.00,478.10 322.50,475.47 C317.00,472.85 311.31,469.87 309.85,468.85 C308.39,467.83 306.74,467.00 306.18,467.00 C305.62,467.00 300.01,463.46 293.71,459.14 C247.00,427.12 219.55,391.70 206.90,347.09 C201.51,328.11 201.07,323.06 201.04,279.78 L 201.00 240.07 L 204.10 236.53 L 207.21 233.00 L 261.35 233.00 L 315.50 233.01 L 321.50 237.81 L 322.23 277.65 C322.64,299.57 323.00,319.43 323.03,321.80 C323.07,324.60 323.59,326.29 324.54,326.65 C325.34,326.96 326.00,327.92 326.00,328.79 C326.00,331.07 329.54,340.62 332.75,347.00 C341.45,364.27 360.14,383.92 380.67,397.37 C387.91,402.12 394.10,406.00 394.43,406.00 C394.76,406.00 398.51,407.62 402.76,409.60 C421.15,418.14 437.67,423.21 456.00,425.94 C466.81,427.54 470.94,429.55 475.03,435.20 L 478.00 439.30 L 478.00 547.19 C478.00,652.58 477.95,655.17 476.03,658.94 C473.87,663.17 467.46,669.00 464.97,669.00 C464.11,669.00 462.97,669.43 462.45,669.95 ZM 530.50 408.89 C507.36,411.26 481.77,410.72 466.73,407.55 C449.70,403.96 428.54,394.84 415.25,385.36 C405.77,378.61 392.83,365.93 385.79,356.50 C361.12,323.45 353.41,271.19 365.91,221.69 C368.89,209.88 379.47,185.55 381.16,186.60 C381.62,186.88 382.00,190.19 382.00,193.95 C382.00,201.55 385.14,218.69 387.61,224.61 C390.24,230.91 394.87,236.89 399.32,239.75 C403.00,242.11 404.51,242.44 412.00,242.47 C421.29,242.50 424.86,241.09 431.82,234.59 C440.72,226.29 443.93,213.14 441.03,196.92 C433.06,152.40 431.00,136.68 431.00,120.47 C431.00,94.02 437.29,70.77 449.58,51.77 C456.21,41.53 477.76,20.00 481.38,20.00 C482.53,20.00 482.01,22.75 478.47,35.65 C472.42,57.71 470.88,68.96 470.88,91.00 C470.88,106.98 471.24,112.03 472.88,119.00 C477.94,140.55 490.16,157.68 505.89,165.26 C511.43,167.93 513.86,168.49 521.48,168.81 C533.38,169.31 539.67,167.05 548.11,159.24 C556.97,151.03 562.19,139.49 564.53,122.92 C565.32,117.33 566.20,115.76 568.14,116.50 C570.22,117.30 576.31,129.03 579.52,138.39 C582.12,145.99 582.22,147.04 582.13,166.39 C582.02,188.54 581.85,189.65 573.53,222.27 C568.46,242.14 567.67,252.67 570.58,261.64 C576.89,281.14 598.59,289.78 613.27,278.64 C621.59,272.33 628.21,258.33 630.02,243.20 C631.68,229.40 632.02,226.09 632.76,225.99 C632.99,225.96 633.26,226.24 633.62,226.61 C633.70,226.70 633.79,226.79 633.88,226.88 C635.54,228.54 639.97,244.76 642.25,257.50 C643.92,266.86 643.85,299.78 642.15,307.00 C641.43,310.02 639.50,316.77 637.86,322.00 C625.91,359.96 595.66,390.39 557.00,403.31 C546.81,406.72 542.20,407.69 530.50,408.89 ZM 509.20 841.61 C503.04,843.23 493.40,843.45 492.50,842.00 C492.16,841.45 490.51,841.00 488.84,841.00 C484.21,841.00 472.13,834.20 466.35,828.34 C461.58,823.50 458.46,818.29 454.56,808.63 C451.97,802.21 452.45,787.28 455.51,778.79 C463.44,756.79 484.41,744.16 506.75,747.91 C510.92,748.61 515.04,749.54 515.91,749.97 C516.79,750.40 519.08,751.44 521.00,752.27 C536.52,758.99 547.00,776.59 547.00,795.94 C547.00,800.94 546.61,805.81 546.14,806.76 C545.66,807.72 543.90,811.47 542.22,815.11 C536.16,828.19 524.42,837.62 509.20,841.61 ZM 766.00 841.46 C759.31,842.66 750.49,842.96 748.50,842.05 C747.40,841.55 745.50,841.11 744.28,841.07 C741.02,840.97 730.96,836.00 727.50,832.78 C725.85,831.25 723.71,829.74 722.75,829.43 C721.79,829.12 721.00,828.41 721.00,827.85 C721.00,827.29 719.50,824.96 717.67,822.67 C710.13,813.23 707.14,799.68 709.47,785.50 C710.25,780.72 710.77,779.29 714.51,771.62 C722.76,754.72 744.65,744.19 763.70,747.96 C767.44,748.70 771.17,749.64 772.00,750.05 C772.83,750.46 775.68,751.86 778.35,753.15 C784.13,755.95 792.87,764.22 796.38,770.20 C801.44,778.84 804.35,795.31 802.18,802.95 C801.62,804.90 800.59,808.46 799.89,810.85 C798.14,816.82 792.05,825.91 786.54,830.75 C781.44,835.24 771.37,840.49 766.00,841.46 ZM 254.50 841.26 C248.73,842.66 238.83,843.09 236.50,842.04 C235.40,841.54 233.33,841.11 231.90,841.07 C227.65,840.96 213.67,832.79 209.84,828.18 C206.51,824.18 201.00,815.49 201.00,814.25 C201.00,813.55 200.61,812.19 200.12,811.24 C196.64,804.33 195.94,790.95 198.60,781.93 C201.41,772.41 203.97,768.00 210.43,761.53 C233.99,737.98 272.14,744.57 286.63,774.70 C290.22,782.16 290.36,782.87 290.43,793.48 C290.52,808.03 288.67,814.43 281.78,823.31 C274.90,832.18 264.96,838.72 254.50,841.26 ZM 637.00 841.59 C630.45,843.18 622.36,843.40 621.50,842.00 C621.16,841.45 619.39,841.00 617.56,841.00 C613.30,841.00 608.03,838.78 601.03,834.02 C593.91,829.18 589.49,824.04 585.98,816.50 C581.66,807.21 581.00,804.35 581.04,795.10 C581.12,780.94 584.61,771.77 593.67,761.99 C599.50,755.69 602.69,753.65 612.70,749.76 C620.28,746.81 634.07,746.61 641.50,749.33 C655.68,754.52 665.15,762.77 670.71,774.76 C673.93,781.71 674.07,782.51 674.07,794.00 C674.08,807.45 672.97,812.01 667.66,820.32 C661.01,830.71 649.83,838.47 637.00,841.59 ZM 322.83 967.06 C318.80,968.54 315.13,968.97 307.51,968.89 C294.65,968.76 289.46,967.08 280.00,960.02 C250.04,937.64 256.74,889.77 291.62,877.06 C296.94,875.12 299.30,874.87 309.62,875.16 C320.45,875.47 322.07,875.77 328.00,878.59 C340.14,884.35 349.48,895.37 353.52,908.70 C355.27,914.46 355.45,928.96 353.84,933.93 C348.74,949.65 337.44,961.72 322.83,967.06 ZM 383.21 841.11 C370.36,843.93 359.32,842.34 348.03,836.07 C340.56,831.92 330.11,819.16 327.08,810.50 C325.25,805.28 325.15,783.10 326.94,779.24 C331.36,769.70 333.12,767.01 338.50,761.55 C351.63,748.21 371.18,743.60 387.50,749.97 C408.51,758.17 419.99,775.85 418.82,798.18 C418.19,810.12 413.21,820.70 404.27,829.06 C397.28,835.60 390.42,839.53 383.21,841.11 ZM 707.93 966.53 C702.60,968.62 700.06,968.98 691.56,968.89 C686.03,968.84 680.15,968.32 678.50,967.74 C655.62,959.76 642.08,938.59 645.08,915.50 C646.61,903.67 650.01,896.97 659.01,888.00 C669.73,877.30 677.01,874.64 694.03,875.18 C704.74,875.52 705.97,875.77 712.50,879.00 C739.91,892.55 747.60,928.39 728.12,951.78 C722.89,958.05 715.18,963.68 707.93,966.53 ZM 449.51 967.45 C443.38,969.24 428.65,969.33 422.41,967.62 C417.84,966.37 407.94,960.48 403.76,956.52 C402.25,955.10 399.29,951.58 397.18,948.72 C387.90,936.10 386.48,916.26 393.71,899.93 C398.04,890.14 410.16,879.98 421.69,876.48 C427.21,874.81 446.54,874.45 447.50,876.00 C447.84,876.55 449.27,877.00 450.69,877.00 C458.38,877.00 473.31,890.22 478.64,901.75 C481.88,908.76 482.00,909.44 482.00,921.46 C482.00,928.35 481.50,935.15 480.88,936.70 C478.34,943.00 477.46,944.69 474.55,948.87 C472.87,951.27 470.38,954.37 469.00,955.76 C464.78,960.03 455.12,965.82 449.51,967.45 ZM 576.10 967.92 C571.82,969.28 553.33,969.35 552.50,968.00 C552.16,967.45 550.77,967.00 549.42,967.00 C548.07,967.00 545.18,965.88 543.00,964.50 C540.82,963.12 538.68,962.00 538.24,962.00 C536.14,962.00 525.85,950.38 523.40,945.23 C518.42,934.77 518.03,932.98 518.02,920.22 C518.00,908.44 518.13,907.69 521.13,901.72 C525.86,892.31 529.69,887.50 535.88,883.19 C544.60,877.11 551.78,875.00 563.76,875.00 C569.43,875.00 574.15,875.44 574.50,876.00 C574.84,876.55 576.33,876.99 577.81,876.98 C587.01,876.93 603.60,891.90 607.75,904.00 C610.12,910.92 612.19,924.21 611.06,925.34 C610.48,925.92 610.00,927.58 610.00,929.02 C610.00,937.27 603.01,950.32 594.67,957.62 C590.16,961.57 582.23,965.97 576.10,967.92 Z" fill="rgb(215,70,5)"/>
    <path d="M 581.22 144.01 C582.08,146.87 582.86,149.80 583.56,152.78 C585.43,160.68 585.20,178.86 583.19,182.58 C582.64,183.60 581.47,188.02 580.56,192.55 C581.99,184.37 582.07,178.55 582.13,166.39 C582.19,152.71 582.16,148.18 581.22,144.01 ZM 625.06 262.05 C628.87,252.76 630.98,240.96 630.99,227.75 C631.00,224.04 631.35,221.00 631.78,221.00 C633.00,221.00 636.00,226.57 636.00,228.82 C636.00,229.92 637.09,235.02 638.43,240.16 C639.79,245.40 640.80,249.69 641.54,253.76 C639.15,241.79 635.38,228.38 633.88,226.88 C633.79,226.79 633.70,226.70 633.62,226.61 C633.26,226.24 632.99,225.96 632.76,225.99 C632.02,226.09 631.68,229.40 630.02,243.20 C629.22,249.90 627.48,256.37 625.06,262.05 ZM 293.32 555.02 C306.22,554.12 314.94,553.24 320.00,552.35 C324.67,551.52 330.98,550.61 334.00,550.33 C337.02,550.05 339.93,549.41 340.45,548.91 C340.97,548.41 342.88,548.00 344.69,548.00 C348.31,548.00 353.58,546.86 359.41,544.87 C349.88,548.17 338.64,550.66 329.09,551.53 C326.12,551.79 318.69,552.68 312.59,553.49 C309.17,553.94 301.90,554.51 293.32,555.02 ZM 323.03 321.80 C323.02,320.98 322.97,318.06 322.89,313.68 C323.08,315.23 323.31,316.43 323.59,317.50 C324.44,320.80 325.50,325.52 325.93,328.00 C326.24,329.80 326.64,331.60 327.13,333.40 C326.43,331.28 326.00,329.59 326.00,328.79 C326.00,327.92 325.34,326.96 324.54,326.65 C323.59,326.29 323.07,324.60 323.03,321.80 ZM 563.35 129.70 C563.97,126.60 564.42,123.34 564.71,119.93 C565.51,110.32 566.37,110.66 572.92,123.14 C574.00,125.19 575.04,127.38 576.04,129.69 C573.02,122.98 569.59,117.06 568.14,116.50 C566.20,115.76 565.32,117.33 564.53,122.92 C564.20,125.28 563.81,127.54 563.35,129.70 ZM 647.64 546.92 C649.28,547.19 651.05,547.42 653.00,547.62 C655.47,547.89 658.40,548.50 659.50,548.99 C660.60,549.48 663.08,550.08 665.00,550.33 C666.30,550.49 670.49,551.06 675.61,551.77 C669.71,550.99 664.16,550.31 661.50,550.05 C657.65,549.67 652.47,548.61 650.00,547.69 C649.25,547.42 648.44,547.15 647.64,546.92 ZM 321.51 238.34 L 322.00 238.80 L 322.01 265.54 ZM 338.47 356.66 C342.93,363.06 348.56,369.67 355.47,376.62 C358.21,379.38 360.61,381.72 362.90,383.81 C353.23,375.33 344.72,365.89 338.47,356.66 ZM 190.83 577.68 C198.70,571.57 208.20,566.64 219.36,562.83 C223.53,561.41 226.87,560.40 230.52,559.64 C227.72,560.28 223.98,561.34 220.45,562.54 C208.69,566.52 198.87,571.51 190.83,577.68 ZM 643.13 267.11 C643.40,271.60 643.48,276.64 643.47,283.00 C643.46,291.48 643.37,296.87 642.86,301.57 C643.56,292.89 643.66,277.76 643.13,267.11 ZM 233.78 559.04 C235.54,558.76 237.42,558.51 239.53,558.29 C238.15,558.70 236.04,559.00 234.41,559.00 C234.24,559.00 234.03,559.01 233.78,559.04 ZM 261.35 233.00 L 207.21 233.00 L 315.79 233.00 L 317.58 234.67 L 315.50 233.01 ZM 635.73 543.51 C638.17,544.57 640.53,545.38 643.13,546.01 L 643.12 546.01 C641.69,546.01 638.86,544.98 635.73,543.51 ZM 618.43 529.49 C616.44,526.02 615.67,522.47 615.68,517.84 C615.67,522.17 616.57,526.04 618.43,529.49 ZM 558.54 144.72 C555.86,150.48 552.42,155.25 548.11,159.23 C552.37,155.29 555.86,150.43 558.54,144.72 ZM 641.07 311.11 C640.28,314.17 639.24,317.60 637.86,322.00 C638.95,318.53 640.17,314.39 641.07,311.11 ZM 571.62 230.22 C570.60,234.88 569.87,238.91 569.42,242.48 C569.87,238.88 570.60,234.84 571.62,230.22 ZM 623.22 535.68 C623.83,536.25 624.47,536.82 625.16,537.36 C624.40,536.79 623.76,536.24 623.29,535.75 Z" fill="rgb(221,118,82)"/>
    <path d="M 462.45 669.95 C462.97,669.43 464.11,669.00 464.97,669.00 C467.46,669.00 473.87,663.17 476.03,658.94 C477.95,655.17 478.00,652.58 478.00,547.19 L 478.00 440.33 L 480.00 444.18 L 480.00 549.06 C480.00,653.61 479.99,653.95 477.91,657.72 C474.89,663.17 470.31,667.63 465.35,669.97 C461.06,671.98 459.77,672.00 322.26,671.92 C200.56,671.85 183.07,671.65 180.02,670.32 C179.21,669.97 178.45,669.61 177.72,669.23 C184.08,671.51 202.37,671.47 304.20,671.24 C309.97,671.23 316.00,671.22 322.32,671.20 C408.89,671.02 461.85,670.55 462.45,669.95 ZM 364.95 225.69 C366.45,218.65 368.26,212.31 370.30,207.29 C371.60,204.10 372.50,201.01 372.31,200.44 C371.69,198.57 379.88,183.00 381.48,183.00 C382.32,183.00 383.04,183.56 383.08,184.25 C383.12,184.94 383.50,192.48 383.92,201.00 C384.32,208.94 384.77,213.92 385.50,217.64 C383.65,210.01 382.00,199.47 382.00,193.95 C382.00,190.19 381.62,186.88 381.16,186.60 C379.47,185.55 368.89,209.88 365.91,221.69 C365.57,223.02 365.25,224.35 364.95,225.69 ZM 518.58 908.04 C518.04,910.56 518.01,913.70 518.02,920.22 C518.03,932.98 518.42,934.77 523.40,945.23 C524.71,947.98 528.27,952.59 531.61,956.28 C529.49,954.22 527.19,951.87 525.22,949.70 C521.16,945.25 518.18,938.67 516.35,930.07 C514.92,923.42 515.36,914.00 517.09,914.00 C517.59,914.00 518.00,912.64 518.00,910.97 C518.00,910.26 518.21,909.25 518.58,908.04 ZM 625.06 262.05 C624.98,262.25 624.89,262.45 624.80,262.65 C626.32,258.51 627.26,253.93 627.51,249.06 C627.73,244.92 628.26,241.41 628.70,241.27 C629.14,241.12 629.35,236.36 629.16,230.69 C628.90,222.59 629.14,220.13 630.28,219.18 C632.04,217.72 632.92,218.07 634.86,225.08 C633.88,222.99 632.51,221.00 631.78,221.00 C631.35,221.00 631.00,224.04 630.99,227.75 C630.98,240.96 628.87,252.76 625.06,262.05 ZM 481.02 936.23 C481.58,934.06 482.00,927.80 482.00,921.46 C482.00,909.44 481.88,908.76 478.64,901.75 C478.48,901.40 478.31,901.05 478.13,900.69 C481.73,907.63 483.98,915.39 483.99,921.93 C484.00,926.20 482.90,931.22 481.02,936.23 ZM 576.12 212.08 C575.75,213.59 575.38,215.08 575.02,216.50 C572.79,225.33 570.75,236.57 570.05,243.84 C569.01,254.67 569.07,256.80 570.50,261.34 C571.64,264.92 573.28,268.17 575.32,271.02 C573.33,268.27 571.71,265.13 570.58,261.64 C568.86,256.34 568.43,250.49 569.42,242.48 L 569.42 242.47 L 569.43 242.38 C569.88,238.81 570.61,234.80 571.62,230.22 C572.17,227.74 572.81,225.10 573.53,222.27 C574.50,218.47 575.36,215.10 576.12,212.08 ZM 582.65 878.02 C580.91,877.34 579.27,876.98 577.81,876.98 C576.33,876.99 574.84,876.55 574.50,876.00 C574.15,875.44 569.43,875.00 563.76,875.00 C562.56,875.00 561.41,875.02 560.30,875.07 C568.60,874.36 577.32,874.46 577.76,875.78 C577.98,876.45 578.69,876.99 579.33,876.98 C580.06,876.97 581.23,877.36 582.65,878.02 ZM 454.20 877.70 C452.92,877.25 451.74,877.00 450.69,877.00 C449.27,877.00 447.84,876.55 447.50,876.00 C446.75,874.79 434.86,874.74 427.03,875.57 C435.73,874.51 449.31,874.42 449.75,875.76 C449.98,876.44 450.86,877.00 451.71,877.00 C452.30,877.00 453.16,877.25 454.20,877.70 ZM 376.47 341.61 C368.67,327.01 363.71,310.32 361.06,290.50 C360.30,284.88 359.98,278.35 360.03,271.41 C360.36,297.15 366.00,321.62 376.47,341.61 ZM 606.34 900.67 C603.58,895.16 598.74,889.39 593.54,884.93 C594.69,885.85 595.75,886.78 596.64,887.66 C601.35,892.32 604.24,895.95 606.34,900.67 ZM 477.39 899.31 C474.67,894.49 470.52,889.56 466.12,885.57 C467.44,886.67 468.68,887.79 469.76,888.89 C472.62,891.79 475.22,895.39 477.39,899.31 ZM 636.14 230.01 C636.78,232.61 637.53,235.74 638.41,239.50 C639.09,242.37 639.67,244.92 640.18,247.26 C639.67,245.06 639.09,242.72 638.43,240.16 C637.37,236.11 636.47,232.07 636.14,230.01 ZM 464.42 407.04 C455.44,405.03 446.92,402.05 437.83,397.89 C446.62,401.80 455.95,405.05 464.42,407.04 ZM 501.68 410.36 C491.32,410.45 482.31,409.97 473.95,408.77 C481.86,409.84 491.49,410.37 501.68,410.36 ZM 596.57 283.48 C598.83,283.64 601.13,283.49 603.42,283.02 C607.39,282.19 611.02,280.42 614.21,277.89 C613.90,278.15 613.59,278.40 613.27,278.64 C608.23,282.47 602.36,283.96 596.57,283.48 ZM 407.49 379.20 C405.10,377.18 402.68,374.97 400.13,372.53 C396.91,369.43 393.89,366.25 391.09,362.97 C395.93,368.48 401.86,374.34 407.49,379.20 ZM 386.75 222.19 C388.57,227.20 391.23,231.78 394.25,235.25 C391.62,232.27 389.24,228.50 387.61,224.61 C387.33,223.94 387.04,223.12 386.75,222.19 ZM 610.72 916.88 C611.68,922.13 611.77,924.63 611.06,925.34 C611.62,924.78 611.39,921.19 610.72,916.88 ZM 531.09 887.09 C528.32,889.76 525.97,892.92 523.52,897.23 C524.70,895.14 525.98,893.09 527.26,891.30 C528.25,889.92 529.56,888.49 531.09,887.09 ZM 474.73 948.62 C472.97,951.27 471.04,953.70 469.00,955.76 C470.38,954.37 472.87,951.27 474.55,948.87 C474.61,948.78 474.67,948.70 474.73,948.62 ZM 558.25 145.32 C555.64,150.76 552.33,155.31 548.22,159.13 C552.28,155.35 555.63,150.72 558.25,145.32 ZM 643.13 267.11 C643.10,266.64 643.08,266.18 643.05,265.73 C643.40,270.50 643.48,275.76 643.47,283.00 C643.48,276.64 643.40,271.60 643.13,267.11 ZM 475.30 435.58 L 475.03 435.20 C474.14,433.98 473.26,432.92 472.30,432.01 C473.40,433.02 474.38,434.20 475.30,435.58 ZM 171.35 664.71 C170.12,663.53 168.99,662.21 167.91,660.72 C168.85,662.01 170.13,663.49 171.35,664.71 ZM 580.56 192.55 L 580.56 192.54 C581.47,188.06 582.62,183.68 583.18,182.61 C582.60,183.72 581.39,188.37 580.48,193.00 L 580.44 193.21 C580.48,192.98 580.52,192.76 580.56,192.55 ZM 413.29 880.12 C410.55,881.65 407.90,883.46 405.45,885.47 C407.91,883.45 410.56,881.64 413.29,880.12 Z" fill="rgb(238,172,152)"/>
  </g>
</svg>